<svg xmlns="http://www.w3.org/2000/svg" width="32" height="32" viewBox="0 0 32 32">
  <defs>
    <linearGradient id="bg" x1="0" y1="0" x2="0" y2="1">
      <stop offset="0%" stop-color="#38bdf8"/>
      <stop offset="100%" stop-color="#1d4ed8"/>
    </linearGradient>
    <clipPath id="c">
      <circle cx="16" cy="16" r="11"/>
    </clipPath>
    <filter id="pinShadow" x="-50%" y="-50%" width="200%" height="200%">
      <feDropShadow dx="0" dy="0.6" stdDeviation="0.7" flood-color="#0b1f4d" flood-opacity="0.55"/>
    </filter>
    <filter id="connShadow" x="-50%" y="-50%" width="200%" height="200%">
      <feDropShadow dx="0" dy="0.4" stdDeviation="0.4" flood-color="#0b1f4d" flood-opacity="0.6"/>
    </filter>
  </defs>
  <rect width="32" height="32" rx="7" fill="url(#bg)"/>
  <g clip-path="url(#c)" stroke="#ffffff" stroke-opacity="0.4" stroke-width="0.9" fill="none">
    <ellipse cx="16" cy="16" rx="11" ry="4"/>
    <ellipse cx="16" cy="16" rx="4" ry="11"/>
    <line x1="5" y1="16" x2="27" y2="16"/>
  </g>
  <circle cx="16" cy="16" r="11" fill="none" stroke="#ffffff" stroke-opacity="0.9" stroke-width="1.2"/>
  <g stroke="#ffffff" stroke-width="1" fill="none" stroke-linecap="round" filter="url(#connShadow)">
    <path d="M16 11 Q9 11 7 16"/>
    <path d="M16 11 Q10 18 9.5 24"/>
    <path d="M16 11 Q19 19 17.5 25.5"/>
    <path d="M16 11 Q24 17 24.5 22"/>
    <path d="M16 11 Q24 11 25 15.5"/>
  </g>
  <g filter="url(#connShadow)">
    <g fill="#ffffff">
      <circle cx="7" cy="16" r="1.4"/>
      <circle cx="9.5" cy="24" r="1.4"/>
      <circle cx="17.5" cy="25.5" r="1.4"/>
      <circle cx="24.5" cy="22" r="1.4"/>
      <circle cx="25" cy="15.5" r="1.4"/>
    </g>
  </g>
  <g filter="url(#pinShadow)">
    <path d="M16 4.5c-2.55 0-4.6 2.02-4.6 4.5 0 3.37 4.6 8.2 4.6 8.2s4.6-4.83 4.6-8.2C20.6 6.52 18.55 4.5 16 4.5z" fill="#ffffff"/>
    <circle cx="16" cy="8.9" r="1.7" fill="#1d4ed8"/>
  </g>
</svg>
